<svg xmlns="http://www.w3.org/2000/svg" width="97.791" height="540.935" viewBox="0 0 97.791 540.935"><path fill="#D22856" d="M34.588 7.863h-26c-.552 0-1 .448-1 1s.448 1 1 1h25v16h-13c-.04 0-.076.018-.116.023-.067.008-.13.018-.194.04-.068.02-.127.052-.188.087-.033.02-.07.024-.102.05l-6.4 4.8v-4c0-.553-.448-1-1-1h-3v-13c0-.552-.448-1-1-1s-1 .448-1 1v14c0 .553.448 1 1 1h3v5c0 .38.214.725.553.895.142.07.296.105.448.105.212 0 .423-.066.6-.2l7.733-5.8H34.59c.553 0 1-.447 1-1v-18c0-.552-.447-1-1-1zM19.192 46.853h2.396v-3.356H18.71c-3.138.18-4.254 2.387-3.846 6.115h-1.948v3.517h1.958v9.31h3.837v-9.31h2.858V49.61H18.7c-.018-1.046-.033-2.406.492-2.76zM21.737 72.104l-.147-.017L8.117 73.5v24.66l13.473 8.017 13.43-7.99.042-.025V73.5l-13.325-1.396zm11.4 12.11L21.61 77.42v-.103l-.088.05-.088-.056v.11L10.04 84.205v-8.97l11.55-1.213 11.546 1.212v8.98zm-11.615-5.34l11.518 6.713-4.48 2.64-7.092-4.22-.014 1.414 5.904 3.514-.86.507-5.03-2.99-.014 1.414 3.827 2.275-.78.522-3.03-1.787-.015 1.413 1.853 1.09-1.8 1.082-11.356-6.75 11.37-6.836zm-11.48 8.34l11.41 6.79.017 1.045-7.942-4.73-.015 1.417 7.98 4.795.017 1.076-7.973-4.74-.013 1.414 8.02 4.822.047.025 8.144-4.873v-1.27l-.01-.146v-3.76l3.414-2.036v10.02l-11.547 6.872-11.547-6.87v-9.852z"/><circle fill="#FFF" cx="25.58" cy="134.255" r="17.991"/><circle fill="#D22856" cx="25.58" cy="134.255" r="7.866"/><path fill="#FFF" d="M8.726 159.49c-.628 0-1.138.43-1.138 1.01v1.982c0 .558.494 1.01 1.14 1.01h47.67c.628 0 1.138-.428 1.138-1.01V160.5c0-.558-.494-1.01-1.138-1.01H8.726zm0 10.004c-.628 0-1.138.428-1.138 1.01v1.98c0 .557.494 1.01 1.14 1.01h47.67c.628 0 1.138-.428 1.138-1.01v-1.98c0-.558-.494-1.01-1.138-1.01H8.726zm0 10.003c-.628 0-1.138.428-1.138 1.01v1.982c0 .556.494 1.01 1.14 1.01h47.67c.628 0 1.138-.43 1.138-1.01v-1.983c0-.557-.494-1.01-1.138-1.01H8.726z"/><path fill="#FFF" d="M8.726 159.49c-.628 0-1.138.43-1.138 1.01v1.982c0 .558.494 1.01 1.14 1.01h47.67c.628 0 1.138-.428 1.138-1.01V160.5c0-.558-.494-1.01-1.138-1.01H8.726zm0 10.004c-.628 0-1.138.428-1.138 1.01v1.98c0 .557.494 1.01 1.14 1.01h47.67c.628 0 1.138-.428 1.138-1.01v-1.98c0-.558-.494-1.01-1.138-1.01H8.726zm0 10.003c-.628 0-1.138.428-1.138 1.01v1.982c0 .556.494 1.01 1.14 1.01h47.67c.628 0 1.138-.43 1.138-1.01v-1.983c0-.557-.494-1.01-1.138-1.01H8.726z"/><path fill="#F25B26" d="M27.7 213.32l10.815-10.815c.586-.585.586-1.535 0-2.12s-1.535-.587-2.12 0L25.58 211.197l-10.814-10.816c-.586-.586-1.535-.586-2.12 0-.587.585-.587 1.535 0 2.12l10.813 10.816-10.817 10.815c-.586.586-.586 1.535 0 2.12.293.294.677.44 1.06.44s.77-.147 1.062-.44L25.58 215.44l10.814 10.814c.293.293.677.44 1.06.44s.77-.147 1.062-.44c.586-.586.586-1.535 0-2.12L27.7 213.318z"/><path d="M79.942 274.51c-2.797-2.402-6.637-3.605-11.518-3.605h-5.67c.473-4.08 1.277-7.397 2.42-9.948 1.143-2.552 2.855-5.044 5.14-7.478 2.362-2.51 4.685-4.53 6.97-6.063 2.283-1.53 5.275-3.356 8.98-5.477l-4.255-7.063c-2.442 1.495-5.476 3.42-9.097 5.78-3.623 2.358-7.05 5.227-10.277 8.606-3.15 3.303-5.83 7.057-8.03 11.262-2.208 4.203-3.31 8.86-3.31 13.97 0 7.232 1.455 13.07 4.37 17.512 2.913 4.44 7.755 6.66 14.53 6.66 4.33 0 7.736-1.436 10.217-4.31 2.482-2.876 3.72-5.968 3.72-9.274 0-4.648-1.398-8.172-4.19-10.574zM26.607 253.48c2.362-2.51 4.685-4.53 6.97-6.063 2.283-1.53 5.274-3.356 8.978-5.477l-4.254-7.063c-2.44 1.495-5.474 3.42-9.094 5.78-3.624 2.358-7.05 5.227-10.278 8.606-3.15 3.303-5.828 7.057-8.032 11.262-2.205 4.203-3.308 8.86-3.308 13.97 0 7.23 1.457 13.068 4.37 17.51 2.913 4.44 7.757 6.662 14.53 6.662 4.33 0 7.737-1.438 10.218-4.312s3.722-5.967 3.722-9.27c0-4.647-1.4-8.17-4.194-10.573-2.796-2.4-6.635-3.604-11.517-3.604h-5.67c.472-4.08 1.3-7.416 2.48-10.008 1.18-2.59 2.873-5.066 5.08-7.42zM23.753 342.084l19.414-19.412c.33-.33.33-.867 0-1.198s-.867-.33-1.197 0l-20.014 20.013c-.33.33-.33.867 0 1.197l20.014 20.013c.164.165.38.248.598.248.22 0 .436-.083.6-.248.332-.33.332-.867 0-1.197l-19.415-19.416zM43.87 397.518l-19.413-19.412c-.33-.33-.33-.867 0-1.198.33-.33.867-.33 1.197 0l20.014 20.012c.33.33.33.867 0 1.197L25.653 418.13c-.164.165-.382.248-.6.248-.216 0-.433-.083-.598-.248-.33-.33-.33-.867 0-1.197l19.416-19.415z"/><path fill="#D22856" d="M35.095 436.5c1.736-.486 3.074.262 3.685 1.15.694-.227 1.372-.47 2.072-.69-.004.84-.538 1.478-.883 1.726.703.166 1.342-.48 1.342-.48-.175.977-1.035 1.747-1.61 1.98-.24 6.59-3.272 10.954-10.383 10.82h-.46c-.423 0-4.29-.448-5.048-1.842 2.34.192 4.01-.41 4.835-1.15-.99-.292-2.76-.464-3.07-2.88.362.104.583.223 1.228.116-1.236-.836-2.608-1.536-2.532-3.685.294.32 1.1.523 1.38.46-.724-.234-2.03-3.28-.92-4.835 1.873 1.81 3.848 3.52 7.37 3.685.214-2.24 1.17-3.742 2.992-4.376z"/><path fill="#5BCF61" d="M47.31 462.998c-.586-.586-1.535-.586-2.12 0l-17.627 17.627-7.627-7.627c-.586-.586-1.535-.586-2.12 0s-.587 1.535 0 2.12l8.687 8.69c.293.293.677.438 1.06.438.385 0 .77-.145 1.062-.438L47.31 465.12c.586-.585.586-1.536 0-2.122z"/><path fill="#D22856" d="M23.364 513.374c-.977.477-1.775-.023-1.775-1.11v-11.38c0-1.09.798-1.586 1.774-1.11l12.133 5.933c.975.478.975 1.258 0 1.736l-12.133 5.93z"/></svg>