<svg xmlns="http://www.w3.org/2000/svg" viewBox="0 0 960 560"><path fill="#D22856" d="M224.4 143.9h5.6V136h-6.8c-7.2.5-10 5.6-8.9 14.2h-4.4v8.2h4.7v21.7h8.9v-21.7h6.8v-8.2h-6.8c-.3-2.4-.3-5.6.9-6.3zM249.9 19.1h-60.7c-1.4 0-2.3.9-2.3 2.3s.9 2.3 2.3 2.3h58.4v37.4H216.5c-.2 0-.2.2-.5.2h-.2l-14.9 11.2v-9.3c0-1.4-.9-2.3-2.3-2.3h-7V30.6c0-1.4-.9-2.3-2.3-2.3s-2.3.9-2.3 2.3v32.7c0 1.4.9 2.3 2.3 2.3h7v11.7c0 .9.5 1.6 1.4 2.1.2.2.7.2.9.2.5 0 .9-.2 1.4-.5l18-13.5h32c1.4 0 2.3-.9 2.3-2.3v-42c-.1-1-1-2.2-2.4-2.2zM369.4 4.7h-.2L337.7 8v57.7l31.5 18.7 31.3-18.7V7.9l-31.1-3.2zM396 32.9L369.2 17v-.2l-.2.2-.2-.2v.2l-26.6 15.9v-21L369 9.1l26.9 2.8c.1.2.1 21 .1 21zm-27-12.3l26.9 15.6-10.5 6.1-16.6-9.8v3.3l13.8 8.2-2.1 1.2-11.7-7v3.3l8.9 5.4-1.9 1.2-7-4.2v3.3l4.4 2.6-4.2 2.6-26.6-15.6L369 20.6zm-26.9 19.3l26.6 15.9v2.3l-18.4-11v3.3L369 61.7v2.6l-18.7-11v3.3L369 67.7l18.9-11.4V44.1l7.9-4.7v23.4L369 78.9l-26.9-16.1V39.9z"/><path fill="#FFF" d="M163.9 233.8c-1.4 0-2.6.9-2.6 2.3v4.7c0 1.4 1.2 2.3 2.6 2.3h111.4c1.4 0 2.6-.9 2.6-2.3v-4.7c0-1.4-1.2-2.3-2.6-2.3H163.9zm0 23.3c-1.4 0-2.6.9-2.6 2.3v4.7c0 1.4 1.2 2.3 2.6 2.3h111.4c1.4 0 2.6-.9 2.6-2.3v-4.7c0-1.4-1.2-2.3-2.6-2.3H163.9zm0 23.4c-1.4 0-2.6.9-2.6 2.3v4.7c0 1.4 1.2 2.3 2.6 2.3h111.4c1.4 0 2.6-.9 2.6-2.3v-4.7c0-1.4-1.2-2.3-2.6-2.3H163.9z"/><path fill="#FFF" d="M163.9 233.8c-1.4 0-2.6.9-2.6 2.3v4.7c0 1.4 1.2 2.3 2.6 2.3h111.4c1.4 0 2.6-.9 2.6-2.3v-4.7c0-1.4-1.2-2.3-2.6-2.3H163.9zm0 23.3c-1.4 0-2.6.9-2.6 2.3v4.7c0 1.4 1.2 2.3 2.6 2.3h111.4c1.4 0 2.6-.9 2.6-2.3v-4.7c0-1.4-1.2-2.3-2.6-2.3H163.9zm0 23.4c-1.4 0-2.6.9-2.6 2.3v4.7c0 1.4 1.2 2.3 2.6 2.3h111.4c1.4 0 2.6-.9 2.6-2.3v-4.7c0-1.4-1.2-2.3-2.6-2.3H163.9zM695.5 32.8l20.1-20.1c.7-.7.7-1.9 0-2.6l-4.9-4.9c-.2-.2-.7-.5-1.2-.5s-.9.2-1.2.5l-20.1 20.1-20-20.1c-.7-.7-1.9-.7-2.6 0l-4.9 4.9c-.7.7-.7 1.9 0 2.6l20.1 20.1-20.1 20.1c-.7.7-.7 1.9 0 2.6l4.9 4.9c.2.2.7.5 1.2.5s.9-.2 1.2-.5l20-20.2 20.1 20.1c.2.2.7.5 1.2.5s.9-.2 1.2-.5l4.9-4.9c.7-.7.7-1.9 0-2.6l-19.9-20z"/><path fill="#F25B26" d="M693.1 251.3l25.2-25.2c1.4-1.4 1.4-3.5 0-4.9s-3.5-1.4-4.9 0l-25.2 25.2-25.5-25.2c-1.4-1.4-3.5-1.4-4.9 0s-1.4 3.5 0 4.9l25.2 25.2-25.2 25.2c-1.4 1.4-1.4 3.5 0 4.9.7.7 1.6.9 2.6.9s1.9-.2 2.6-.9l25.2-25.2 25.2 25.2c.7.7 1.6.9 2.6.9.9 0 1.9-.2 2.6-.9 1.4-1.4 1.4-3.5 0-4.9l-25.5-25.2z"/><g fill="#7e868f"><path d="M532.5 503.5c-6.5-5.6-15.4-8.4-26.9-8.4h-13.3c1.2-9.6 3-17.3 5.6-23.1 2.6-6.1 6.8-11.7 11.9-17.5 5.6-5.8 11-10.5 16.3-14.2 5.4-3.5 12.4-7.9 21-12.8l-10-16.6c-5.6 3.5-12.8 7.9-21.3 13.5-8.4 5.6-16.3 12.1-24.1 20.1-7.5 7.7-13.5 16.6-18.7 26.4-5.1 9.8-7.7 20.8-7.7 32.7 0 16.8 3.5 30.6 10.3 40.9 6.8 10.3 18.2 15.6 33.9 15.6 10 0 18-3.3 23.8-10s8.6-14 8.6-21.7c.4-11.1-2.9-19.3-9.4-24.9zM407.8 454.4c5.6-5.8 11-10.5 16.3-14.2 5.4-3.5 12.4-7.9 21-12.8l-10-16.6c-5.6 3.5-12.8 7.9-21.3 13.5-8.4 5.6-16.3 12.1-24.1 20.1-7.2 7.7-13.5 16.6-18.7 26.4-5.1 9.8-7.7 20.8-7.7 32.7 0 16.8 3.5 30.6 10.3 40.9s18.2 15.6 33.9 15.6c10 0 18-3.3 23.8-10 5.8-6.8 8.6-14 8.6-21.7 0-10.7-3.3-19.1-9.8-24.8-6.5-5.6-15.4-8.4-26.9-8.4H390c1.2-9.6 3-17.3 5.8-23.4 2.9-6 6.8-11.9 12-17.3z"/></g><path fill="#c2c6ca" d="M348.5 268.8l45.3-45.3c.7-.7.7-2.1 0-2.8-.7-.7-2.1-.7-2.8 0l-46.7 46.7c-.7.7-.7 2.1 0 2.8l46.7 46.7c.5.5.9.5 1.4.5s.9-.2 1.4-.5c.7-.7.7-2.1 0-2.8l-45.3-45.3zM527.6 270.7l-45.3-45.3c-.7-.7-.7-2.1 0-2.8.7-.7 2.1-.7 2.8 0l46.7 46.7c.7.7.7 2.1 0 2.8l-46.7 46.7c-.5.5-.9.5-1.4.5-.5 0-.9-.2-1.4-.5-.7-.7-.7-2.1 0-2.8l45.3-45.3z"/><path fill="#D22856" d="M375 141.2c4-1.2 7.2.7 8.6 2.8 1.6-.5 3.3-1.2 4.9-1.6 0 1.9-1.2 3.5-2.1 4 1.6.5 3-1.2 3-1.2-.5 2.3-2.3 4-3.7 4.7-.5 15.4-7.7 25.7-24.3 25.2h-1.2c-.9 0-10-1.2-11.7-4.2 5.4.5 9.3-.9 11.2-2.8-2.3-.7-6.5-1.2-7.2-6.8.9.2 1.4.5 2.8.2-2.8-1.9-6.1-3.5-5.8-8.6.7.7 2.6 1.2 3.3 1.2-1.6-.5-4.7-7.7-2.1-11.2 4.4 4.2 8.9 8.2 17.3 8.6.5-5.4 2.8-8.9 7-10.3zM493.4 173.9c-2.3 1.2-4.2 0-4.2-2.6v-26.6c0-2.6 1.9-3.7 4.2-2.6l28.3 13.8c2.3 1.2 2.3 3 0 4l-28.3 14zM913.7 221.2c-1.4-1.4-3.5-1.4-4.9 0l-41.1 41.1-17.7-17.8c-1.4-1.4-3.5-1.4-4.9 0s-1.4 3.5 0 4.9l20.3 20.3c.7.7 1.6.9 2.6.9.9 0 1.9-.2 2.6-.9l43.7-43.7c.8-1.1.8-3.4-.6-4.8z"/><path fill="#283645" d="M532.7 4.7h-.2L501 8v57.7l31.5 18.7 31.3-18.7V7.9l-31.1-3.2zm26.6 28.2L532.5 17v-.2l-.2.2-.2-.2v.2l-26.6 15.9v-21l26.9-2.8 26.9 2.8v21zm-27.1-12.3l26.9 15.6-10.5 6.1-16.6-9.8v3.3l13.8 8.2-2.1 1.2-11.7-7v3.3l8.9 5.4-1.9 1.2-7-4.2v3.3l4.4 2.6-4.2 2.6-26.6-15.6 26.6-16.2zm-26.8 19.3L532 55.8v2.3l-18.4-11v3.3l18.7 11.2v2.6l-18.7-11v3.3l18.7 11.2 18.9-11.4V44.1l7.9-4.7v23.4l-26.9 16.1-26.9-16.1V39.9z"/><path fill="#5BCF61" d="M913.7 85.4c-1.4-1.4-3.5-1.4-4.9 0l-41.1 41.1-17.7-17.8c-1.4-1.4-3.5-1.4-4.9 0s-1.4 3.5 0 4.9l20.3 20.3c.7.7 1.6.9 2.6.9.9 0 1.9-.2 2.6-.9l43.7-43.7c.8-1.1.8-3.4-.6-4.8z"/><path fill="#F25B26" d="M693.1 123.1l25.2-25.2c1.4-1.4 1.4-3.5 0-4.9-1.4-1.4-3.5-1.4-4.9 0l-25.2 25.2L662.7 93c-1.4-1.4-3.5-1.4-4.9 0s-1.4 3.5 0 4.9l25.2 25.2-25.2 25.2c-1.4 1.4-1.4 3.5 0 4.9.7.7 1.6.9 2.6.9s1.9-.2 2.6-.9l25.2-25.2 25.2 25.2c.7.7 1.6.9 2.6.9.9 0 1.9-.2 2.6-.9 1.4-1.4 1.4-3.5 0-4.9l-25.5-25.2zM693.1 365.8l25.2-25.2c1.4-1.4 1.4-3.5 0-4.9-1.4-1.4-3.5-1.4-4.9 0l-25.2 25.2-25.5-25.2c-1.4-1.4-3.5-1.4-4.9 0-1.4 1.4-1.4 3.5 0 4.9l25.2 25.2-25.2 25.2c-1.4 1.4-1.4 3.5 0 4.9.7.7 1.6.9 2.6.9s1.9-.2 2.6-.9l25.2-25.2 25.2 25.2c.7.7 1.6.9 2.6.9.9 0 1.9-.2 2.6-.9 1.4-1.4 1.4-3.5 0-4.9l-25.5-25.2z"/><path fill="#5BCF61" d="M913.7 341.5c-1.4-1.4-3.5-1.4-4.9 0l-41.1 41.1-17.7-17.8c-1.4-1.4-3.5-1.4-4.9 0-1.4 1.4-1.4 3.5 0 4.9l20.3 20.3c.7.7 1.6.9 2.6.9.9 0 1.9-.2 2.6-.9l43.7-43.7c.8-1.1.8-3.4-.6-4.8z"/><path fill="#D22856" d="M20.9 233.8c-1.4 0-2.6.9-2.6 2.3v4.7c0 1.4 1.2 2.3 2.6 2.3h111.4c1.4 0 2.6-.9 2.6-2.3v-4.7c0-1.4-1.2-2.3-2.6-2.3H20.9zm0 23.3c-1.4 0-2.6.9-2.6 2.3v4.7c0 1.4 1.2 2.3 2.6 2.3h111.4c1.4 0 2.6-.9 2.6-2.3v-4.7c0-1.4-1.2-2.3-2.6-2.3H20.9zm0 23.4c-1.4 0-2.6.9-2.6 2.3v4.7c0 1.4 1.2 2.3 2.6 2.3h111.4c1.4 0 2.6-.9 2.6-2.3v-4.7c0-1.4-1.2-2.3-2.6-2.3H20.9z"/><path fill="#D22856" d="M20.9 233.8c-1.4 0-2.6.9-2.6 2.3v4.7c0 1.4 1.2 2.3 2.6 2.3h111.4c1.4 0 2.6-.9 2.6-2.3v-4.7c0-1.4-1.2-2.3-2.6-2.3H20.9zm0 23.3c-1.4 0-2.6.9-2.6 2.3v4.7c0 1.4 1.2 2.3 2.6 2.3h111.4c1.4 0 2.6-.9 2.6-2.3v-4.7c0-1.4-1.2-2.3-2.6-2.3H20.9zm0 23.4c-1.4 0-2.6.9-2.6 2.3v4.7c0 1.4 1.2 2.3 2.6 2.3h111.4c1.4 0 2.6-.9 2.6-2.3v-4.7c0-1.4-1.2-2.3-2.6-2.3H20.9z"/><path fill="#d22856" d="M879.4 32.8l20.1-20.1c.7-.7.7-1.9 0-2.6l-4.9-4.9c-.2-.2-.7-.5-1.2-.5s-.9.2-1.2.5l-20.1 20.1L852 5.2c-.7-.7-1.9-.7-2.6 0l-4.9 4.9c-.7.7-.7 1.9 0 2.6l20.1 20.1-20.1 20.1c-.7.7-.7 1.9 0 2.6l4.9 4.9c.2.2.7.5 1.2.5s.9-.2 1.2-.5l20.1-20.1 20.1 20c.2.2.7.5 1.2.5s.9-.2 1.2-.5l4.9-4.9c.7-.7.7-1.9 0-2.6l-19.9-20z"/></svg>