<?xml version="1.0" encoding="utf-8"?>
<!-- Generator: Adobe Illustrator 16.0.0, SVG Export Plug-In . SVG Version: 6.00 Build 0)  -->
<!DOCTYPE svg PUBLIC "-//W3C//DTD SVG 1.1//EN" "http://www.w3.org/Graphics/SVG/1.1/DTD/svg11.dtd">
<svg version="1.1" id="Layer_1" xmlns="http://www.w3.org/2000/svg" xmlns:xlink="http://www.w3.org/1999/xlink" x="0px" y="0px"
	 width="97.791px" height="540.935px" viewBox="0 0 97.791 540.935" enable-background="new 0 0 97.791 540.935"
	 xml:space="preserve">
<path fill="#D22856" d="M34.588,7.863h-26c-0.552,0-1,0.448-1,1s0.448,1,1,1h25v16h-13c-0.041,0-0.076,0.018-0.116,0.023
	c-0.067,0.008-0.13,0.018-0.194,0.039c-0.068,0.021-0.127,0.053-0.188,0.088c-0.033,0.02-0.071,0.024-0.102,0.05l-6.4,4.8v-4
	c0-0.553-0.448-1-1-1h-3v-13c0-0.552-0.448-1-1-1s-1,0.448-1,1v14c0,0.553,0.448,1,1,1h3v5c0,0.379,0.214,0.725,0.553,0.895
	c0.141,0.07,0.295,0.105,0.447,0.105c0.212,0,0.423-0.066,0.6-0.2l7.733-5.8h13.667c0.553,0,1-0.447,1-1v-18
	C35.588,8.311,35.141,7.863,34.588,7.863z"/>
<path fill="#D22856" d="M19.192,46.853c0.799,0,1.598,0,2.396,0c0-1.119,0-2.237,0-3.356c-0.959,0-1.92,0-2.877,0
	c-3.139,0.181-4.255,2.387-3.847,6.115h-1.948v3.517h1.958c0,3.104,0,6.208,0,9.312c1.279,0,2.558,0,3.837,0
	c0-3.104,0-6.208,0-9.312h2.857v-3.517h-2.867C18.682,48.566,18.667,47.206,19.192,46.853z"/>
<path fill="#D22856" d="M21.737,72.104l-0.147-0.017L8.117,73.499V98.16l13.473,8.017l13.43-7.99l0.042-0.025V73.499L21.737,72.104z M33.136,84.214
	l-11.524-6.793l-0.001-0.104l-0.087,0.05l-0.088-0.056v0.109l-11.395,6.785v-8.971l11.548-1.212l11.547,1.212V84.214z
	 M21.522,78.874l11.518,6.713l-4.479,2.64l-7.093-4.221l-0.014,1.415l5.904,3.513l-0.86,0.507l-5.03-2.992l-0.014,1.415l3.827,2.275
	L24.5,90.662l-3.031-1.787l-0.014,1.413l1.853,1.091l-1.8,1.081l-11.356-6.751L21.522,78.874z M10.042,87.214l11.411,6.791
	l0.016,1.044l-7.941-4.728l-0.015,1.416l7.979,4.795l0.018,1.076l-7.973-4.74l-0.013,1.414l8.021,4.822l0.046,0.025l8.143-4.872
	v-1.269l-0.011-0.147v-3.761l3.415-2.036v10.021l-11.547,6.871l-11.548-6.871V87.214z"/>
<circle fill="#FFFFFF" cx="25.58" cy="134.255" r="17.991"/>
<circle fill="#D22856" cx="25.58" cy="134.255" r="7.866"/>
<g id="miu">
	<g id="editor_list_view_hambuger_menu_glyph">
		<g>
			<path id="path-1" fill="#FFFFFF" d="M8.726,159.491c-0.628,0-1.138,0.428-1.138,1.01v1.981c0,0.558,0.494,1.01,1.139,1.01h47.671
				c0.628,0,1.138-0.428,1.138-1.01V160.5c0-0.558-0.494-1.01-1.138-1.01H8.726z M8.726,169.494c-0.628,0-1.138,0.428-1.138,1.01
				v1.98c0,0.557,0.494,1.01,1.139,1.01h47.671c0.628,0,1.138-0.428,1.138-1.01v-1.98c0-0.558-0.494-1.01-1.138-1.01H8.726z
				 M8.726,179.497c-0.628,0-1.138,0.428-1.138,1.01v1.982c0,0.557,0.494,1.01,1.139,1.01h47.671c0.628,0,1.138-0.428,1.138-1.01
				v-1.982c0-0.557-0.494-1.01-1.138-1.01H8.726z"/>
		</g>
		<g>
			<path id="path-1_1_" fill="#FFFFFF" d="M8.726,159.491c-0.628,0-1.138,0.428-1.138,1.01v1.981c0,0.558,0.494,1.01,1.139,1.01
				h47.671c0.628,0,1.138-0.428,1.138-1.01V160.5c0-0.558-0.494-1.01-1.138-1.01H8.726z M8.726,169.494
				c-0.628,0-1.138,0.428-1.138,1.01v1.98c0,0.557,0.494,1.01,1.139,1.01h47.671c0.628,0,1.138-0.428,1.138-1.01v-1.98
				c0-0.558-0.494-1.01-1.138-1.01H8.726z M8.726,179.497c-0.628,0-1.138,0.428-1.138,1.01v1.982c0,0.557,0.494,1.01,1.139,1.01
				h47.671c0.628,0,1.138-0.428,1.138-1.01v-1.982c0-0.557-0.494-1.01-1.138-1.01H8.726z"/>
		</g>
	</g>
</g>
<path fill="#F25B26" d="M27.701,213.319l10.814-10.814c0.586-0.585,0.586-1.535,0-2.121s-1.535-0.586-2.121,0L25.58,211.198
	l-10.814-10.816c-0.586-0.586-1.535-0.586-2.121,0c-0.586,0.585-0.586,1.535,0,2.121l10.814,10.815l-10.816,10.815
	c-0.586,0.586-0.586,1.535,0,2.121c0.293,0.293,0.677,0.438,1.061,0.438s0.768-0.146,1.061-0.438L25.58,215.44l10.814,10.814
	c0.293,0.293,0.677,0.439,1.061,0.439s0.768-0.146,1.061-0.439c0.586-0.586,0.586-1.535,0-2.121L27.701,213.319z"/>
<g>
	<path d="M79.942,274.509c-2.797-2.401-6.637-3.604-11.518-3.604h-5.67c0.473-4.081,1.277-7.397,2.42-9.948
		c1.143-2.552,2.855-5.044,5.141-7.478c2.361-2.51,4.684-4.53,6.969-6.062c2.283-1.53,5.275-3.356,8.979-5.477l-4.254-7.063
		c-2.441,1.495-5.475,3.42-9.096,5.779c-3.623,2.359-7.049,5.228-10.277,8.607c-3.15,3.303-5.83,7.057-8.031,11.262
		c-2.207,4.203-3.309,8.859-3.309,13.97c0,7.232,1.455,13.07,4.371,17.512c2.912,4.439,7.754,6.66,14.529,6.66
		c4.33,0,7.736-1.436,10.217-4.311c2.482-2.875,3.721-5.967,3.721-9.273C84.133,280.435,82.735,276.911,79.942,274.509z"/>
	<path d="M26.607,253.479c2.362-2.51,4.685-4.53,6.97-6.062c2.283-1.53,5.274-3.356,8.978-5.477l-4.254-7.063
		c-2.441,1.495-5.475,3.42-9.095,5.779c-3.624,2.359-7.05,5.228-10.278,8.607c-3.149,3.303-5.828,7.057-8.032,11.262
		c-2.205,4.203-3.308,8.859-3.308,13.97c0,7.23,1.457,13.068,4.371,17.51c2.912,4.439,7.756,6.662,14.529,6.662
		c4.33,0,7.737-1.438,10.218-4.312s3.722-5.967,3.722-9.271c0-4.646-1.399-8.17-4.194-10.572c-2.796-2.401-6.635-3.604-11.517-3.604
		h-5.671c0.473-4.081,1.3-7.416,2.481-10.008C22.708,258.309,24.4,255.834,26.607,253.479z"/>
</g>
<path d="M23.753,342.084l19.414-19.412c0.33-0.331,0.33-0.867,0-1.198s-0.867-0.331-1.197,0l-20.014,20.013
	c-0.331,0.33-0.331,0.867,0,1.197l20.014,20.013c0.164,0.165,0.381,0.248,0.598,0.248c0.219,0,0.436-0.083,0.6-0.248
	c0.332-0.33,0.332-0.867,0-1.197L23.753,342.084z"/>
<path d="M43.871,397.518l-19.414-19.412c-0.331-0.331-0.331-0.867,0-1.198c0.33-0.331,0.867-0.331,1.197,0l20.014,20.012
	c0.33,0.33,0.33,0.867,0,1.197L25.653,418.13c-0.164,0.165-0.382,0.248-0.599,0.248c-0.217,0-0.434-0.083-0.599-0.248
	c-0.331-0.33-0.331-0.867,0-1.197L43.871,397.518z"/>
<g id="W6EeEF_1_">
	<g>
		<path fill="#D22856" d="M35.095,436.499c1.736-0.485,3.074,0.263,3.685,1.151c0.694-0.227,1.372-0.471,2.072-0.691
			c-0.004,0.842-0.538,1.479-0.883,1.727c0.704,0.166,1.343-0.479,1.343-0.479c-0.175,0.976-1.035,1.746-1.611,1.978
			c-0.238,6.592-3.271,10.955-10.382,10.822c-0.538,0,0.077,0-0.46,0c-0.422,0-4.29-0.449-5.047-1.843
			c2.341,0.192,4.011-0.411,4.835-1.149c-0.989-0.293-2.761-0.465-3.07-2.881c0.362,0.104,0.583,0.223,1.228,0.116
			c-1.236-0.836-2.608-1.536-2.532-3.685c0.294,0.32,1.1,0.523,1.381,0.461c-0.725-0.235-2.03-3.281-0.921-4.836
			c1.873,1.811,3.848,3.521,7.369,3.685C32.317,438.635,33.272,437.133,35.095,436.499z"/>
	</g>
</g>
<path fill="#5BCF61" d="M47.31,462.998c-0.586-0.586-1.535-0.586-2.121,0l-17.626,17.627l-7.627-7.627
	c-0.586-0.586-1.535-0.586-2.121,0s-0.586,1.535,0,2.121l8.688,8.689c0.293,0.293,0.677,0.438,1.061,0.438
	c0.384,0,0.768-0.145,1.061-0.438l18.686-18.688C47.896,464.535,47.896,463.584,47.31,462.998z"/>
<path fill="#D22856" d="M23.364,513.374c-0.977,0.477-1.775-0.023-1.775-1.109v-11.382c0-1.088,0.799-1.585,1.775-1.108l12.133,5.932
	c0.975,0.478,0.975,1.258,0,1.736L23.364,513.374z"/>
</svg>
