<?xml version="1.0" encoding="utf-8"?>
<!-- Generator: Adobe Illustrator 18.1.1, SVG Export Plug-In . SVG Version: 6.00 Build 0)  -->
<svg version="1.1" id="Слой_1" xmlns="http://www.w3.org/2000/svg" xmlns:xlink="http://www.w3.org/1999/xlink" x="0px" y="0px"
	 viewBox="0 0 960 560" enable-background="new 0 0 960 560" xml:space="preserve">
<path fill="#D22856" d="M224.4,143.9c1.9,0,3.7,0,5.6,0c0-2.6,0-5.1,0-7.9c-2.3,0-4.4,0-6.8,0c-7.2,0.5-10,5.6-8.9,14.2h-4.4v8.2
	h4.7c0,7.2,0,14.5,0,21.7c3,0,6.1,0,8.9,0c0-7.2,0-14.5,0-21.7h6.8v-8.2h-6.8C223.2,147.8,223.2,144.6,224.4,143.9z"/>
<path fill="#D22856" d="M249.9,19.1h-60.7c-1.4,0-2.3,0.9-2.3,2.3c0,1.4,0.9,2.3,2.3,2.3h58.4v37.4h-30.4h-0.2c-0.2,0-0.2,0-0.5,0
	c-0.2,0-0.2,0.2-0.5,0.2h-0.2l-14.9,11.2v-9.3c0-1.4-0.9-2.3-2.3-2.3h-7V30.6c0-1.4-0.9-2.3-2.3-2.3s-2.3,0.9-2.3,2.3v32.7
	c0,1.4,0.9,2.3,2.3,2.3h7v11.7c0,0.9,0.5,1.6,1.4,2.1c0.2,0.2,0.7,0.2,0.9,0.2c0.5,0,0.9-0.2,1.4-0.5l18-13.5h32
	c1.4,0,2.3-0.9,2.3-2.3v-42C252.2,20.3,251.3,19.1,249.9,19.1z"/>
<path fill="#D22856" d="M369.4,4.7h-0.2l-31.5,3.3v57.7l31.5,18.7l31.3-18.7l0,0V7.9L369.4,4.7z M396,32.9L369.2,17v-0.2L369,17
	l-0.2-0.2V17l-26.6,15.9v-21L369,9.1l26.9,2.8C396,12.1,396,32.9,396,32.9z M369,20.6l26.9,15.6l-10.5,6.1l-16.6-9.8v3.3l13.8,8.2
	l-2.1,1.2l-11.7-7v3.3l8.9,5.4l-1.9,1.2l-7-4.2v3.3l4.4,2.6l-4.2,2.6l-26.6-15.6L369,20.6z M342.1,39.9l26.6,15.9v2.3l-18.4-11v3.3
	L369,61.7v2.6l-18.7-11v3.3L369,67.7l0,0l18.9-11.4v-3V53v-8.9l7.9-4.7v23.4L369,78.9l-26.9-16.1V39.9z"/>
<g id="miu">
	<g id="editor_list_view_hambuger_menu_glyph">
		<g>
			<path id="path-1" fill="#FFFFFF" d="M163.9,233.8c-1.4,0-2.6,0.9-2.6,2.3v4.7c0,1.4,1.2,2.3,2.6,2.3h111.4c1.4,0,2.6-0.9,2.6-2.3
				v-4.7c0-1.4-1.2-2.3-2.6-2.3H163.9z M163.9,257.1c-1.4,0-2.6,0.9-2.6,2.3v4.7c0,1.4,1.2,2.3,2.6,2.3h111.4c1.4,0,2.6-0.9,2.6-2.3
				v-4.7c0-1.4-1.2-2.3-2.6-2.3H163.9z M163.9,280.5c-1.4,0-2.6,0.9-2.6,2.3v4.7c0,1.4,1.2,2.3,2.6,2.3h111.4c1.4,0,2.6-0.9,2.6-2.3
				v-4.7c0-1.4-1.2-2.3-2.6-2.3H163.9z"/>
		</g>
		<g>
			<path id="path-1_1_" fill="#FFFFFF" d="M163.9,233.8c-1.4,0-2.6,0.9-2.6,2.3v4.7c0,1.4,1.2,2.3,2.6,2.3h111.4
				c1.4,0,2.6-0.9,2.6-2.3v-4.7c0-1.4-1.2-2.3-2.6-2.3H163.9z M163.9,257.1c-1.4,0-2.6,0.9-2.6,2.3v4.7c0,1.4,1.2,2.3,2.6,2.3h111.4
				c1.4,0,2.6-0.9,2.6-2.3v-4.7c0-1.4-1.2-2.3-2.6-2.3H163.9z M163.9,280.5c-1.4,0-2.6,0.9-2.6,2.3v4.7c0,1.4,1.2,2.3,2.6,2.3h111.4
				c1.4,0,2.6-0.9,2.6-2.3v-4.7c0-1.4-1.2-2.3-2.6-2.3H163.9z"/>
		</g>
	</g>
</g>
<path fill="#FFFFFF" d="M695.5,32.8l20.1-20.1c0.7-0.7,0.7-1.9,0-2.6l-4.9-4.9c-0.2-0.2-0.7-0.5-1.2-0.5s-0.9,0.2-1.2,0.5
	l-20.1,20.1L668.2,5.2c-0.7-0.7-1.9-0.7-2.6,0l-4.9,4.9c-0.7,0.7-0.7,1.9,0,2.6l20.1,20.1l-20.1,20.1c-0.7,0.7-0.7,1.9,0,2.6
	l4.9,4.9c0.2,0.2,0.7,0.5,1.2,0.5s0.9-0.2,1.2-0.5L688,40.2l20.1,20.1c0.2,0.2,0.7,0.5,1.2,0.5s0.9-0.2,1.2-0.5l4.9-4.9
	c0.7-0.7,0.7-1.9,0-2.6L695.5,32.8z"/>
<path fill="#F25B26" d="M693.1,251.3l25.2-25.2c1.4-1.4,1.4-3.5,0-4.9s-3.5-1.4-4.9,0l-25.2,25.2l-25.5-25.2c-1.4-1.4-3.5-1.4-4.9,0
	s-1.4,3.5,0,4.9l25.2,25.2l-25.2,25.2c-1.4,1.4-1.4,3.5,0,4.9c0.7,0.7,1.6,0.9,2.6,0.9s1.9-0.2,2.6-0.9l25.2-25.2l25.2,25.2
	c0.7,0.7,1.6,0.9,2.6,0.9c0.9,0,1.9-0.2,2.6-0.9c1.4-1.4,1.4-3.5,0-4.9L693.1,251.3z"/>
<g>
	<path fill="#7e868f" d="M532.5,503.5c-6.5-5.6-15.4-8.4-26.9-8.4h-13.3c1.2-9.6,3-17.3,5.6-23.1c2.6-6.1,6.8-11.7,11.9-17.5
		c5.6-5.8,11-10.5,16.3-14.2c5.4-3.5,12.4-7.9,21-12.8l-10-16.6c-5.6,3.5-12.8,7.9-21.3,13.5c-8.4,5.6-16.3,12.1-24.1,20.1
		c-7.5,7.7-13.5,16.6-18.7,26.4c-5.1,9.8-7.7,20.8-7.7,32.7c0,16.8,3.5,30.6,10.3,40.9c6.8,10.3,18.2,15.6,33.9,15.6
		c10,0,18-3.3,23.8-10s8.6-14,8.6-21.7C542.3,517.3,539,509.1,532.5,503.5z"/>
	<path fill="#7e868f" d="M407.8,454.4c5.6-5.8,11-10.5,16.3-14.2c5.4-3.5,12.4-7.9,21-12.8l-10-16.6c-5.6,3.5-12.8,7.9-21.3,13.5
		c-8.4,5.6-16.3,12.1-24.1,20.1c-7.2,7.7-13.5,16.6-18.7,26.4c-5.1,9.8-7.7,20.8-7.7,32.7c0,16.8,3.5,30.6,10.3,40.9
		s18.2,15.6,33.9,15.6c10,0,18-3.3,23.8-10c5.8-6.8,8.6-14,8.6-21.7c0-10.7-3.3-19.1-9.8-24.8c-6.5-5.6-15.4-8.4-26.9-8.4H390
		c1.2-9.6,3-17.3,5.8-23.4C398.7,465.7,402.6,459.8,407.8,454.4z"/>
</g>
<path fill="#c2c6ca" d="M348.5,268.8l45.3-45.3c0.7-0.7,0.7-2.1,0-2.8c-0.7-0.7-2.1-0.7-2.8,0l-46.7,46.7c-0.7,0.7-0.7,2.1,0,2.8l46.7,46.7
	c0.5,0.5,0.9,0.5,1.4,0.5s0.9-0.2,1.4-0.5c0.7-0.7,0.7-2.1,0-2.8L348.5,268.8z"/>
<path fill="#c2c6ca" d="M527.6,270.7l-45.3-45.3c-0.7-0.7-0.7-2.1,0-2.8c0.7-0.7,2.1-0.7,2.8,0l46.7,46.7c0.7,0.7,0.7,2.1,0,2.8l-46.7,46.7
	c-0.5,0.5-0.9,0.5-1.4,0.5c-0.5,0-0.9-0.2-1.4-0.5c-0.7-0.7-0.7-2.1,0-2.8L527.6,270.7z"/>
<g id="W6EeEF_1_">
	<g>
		<path fill="#D22856" d="M375,141.2c4-1.2,7.2,0.7,8.6,2.8c1.6-0.5,3.3-1.2,4.9-1.6c0,1.9-1.2,3.5-2.1,4c1.6,0.5,3-1.2,3-1.2
			c-0.5,2.3-2.3,4-3.7,4.7c-0.5,15.4-7.7,25.7-24.3,25.2c-1.2,0,0.2,0-1.2,0c-0.9,0-10-1.2-11.7-4.2c5.4,0.5,9.3-0.9,11.2-2.8
			c-2.3-0.7-6.5-1.2-7.2-6.8c0.9,0.2,1.4,0.5,2.8,0.2c-2.8-1.9-6.1-3.5-5.8-8.6c0.7,0.7,2.6,1.2,3.3,1.2c-1.6-0.5-4.7-7.7-2.1-11.2
			c4.4,4.2,8.9,8.2,17.3,8.6C368.5,146.1,370.8,142.6,375,141.2z"/>
	</g>
</g>
<path fill="#D22856" d="M493.4,173.9c-2.3,1.2-4.2,0-4.2-2.6v-26.6c0-2.6,1.9-3.7,4.2-2.6l28.3,13.8c2.3,1.2,2.3,3,0,4L493.4,173.9z
	"/>
<path fill="#D22856" d="M913.7,221.2c-1.4-1.4-3.5-1.4-4.9,0l-41.1,41.1L850,244.5c-1.4-1.4-3.5-1.4-4.9,0s-1.4,3.5,0,4.9l20.3,20.3
	c0.7,0.7,1.6,0.9,2.6,0.9c0.9,0,1.9-0.2,2.6-0.9l43.7-43.7C915.1,224.9,915.1,222.6,913.7,221.2z"/>
<path fill="#283645" d="M532.7,4.7h-0.2l-31.5,3.3v57.7l31.5,18.7l31.3-18.7l0,0V7.9L532.7,4.7z M559.3,32.9L532.5,17v-0.2l-0.2,0.2
	l-0.2-0.2V17l-26.6,15.9v-21l26.9-2.8l26.9,2.8C559.3,12.1,559.3,32.9,559.3,32.9z M532.2,20.6l26.9,15.6l-10.5,6.1L532,32.5v3.3
	l13.8,8.2l-2.1,1.2l-11.7-7v3.3l8.9,5.4l-1.9,1.2l-7-4.2v3.3l4.4,2.6l-4.2,2.6l-26.6-15.6L532.2,20.6z M505.4,39.9L532,55.8v2.3
	l-18.4-11v3.3l18.7,11.2v2.6l-18.7-11v3.3l18.7,11.2l0,0l18.9-11.4v-3V53v-8.9l7.9-4.7v23.4l-26.9,16.1l-26.9-16.1V39.9z"/>
<path fill="#5BCF61" d="M913.7,85.4c-1.4-1.4-3.5-1.4-4.9,0l-41.1,41.1L850,108.7c-1.4-1.4-3.5-1.4-4.9,0s-1.4,3.5,0,4.9l20.3,20.3
	c0.7,0.7,1.6,0.9,2.6,0.9c0.9,0,1.9-0.2,2.6-0.9l43.7-43.7C915.1,89.1,915.1,86.8,913.7,85.4z"/>
<path fill="#F25B26" d="M693.1,123.1l25.2-25.2c1.4-1.4,1.4-3.5,0-4.9c-1.4-1.4-3.5-1.4-4.9,0l-25.2,25.2L662.7,93
	c-1.4-1.4-3.5-1.4-4.9,0s-1.4,3.5,0,4.9l25.2,25.2l-25.2,25.2c-1.4,1.4-1.4,3.5,0,4.9c0.7,0.7,1.6,0.9,2.6,0.9s1.9-0.2,2.6-0.9
	l25.2-25.2l25.2,25.2c0.7,0.7,1.6,0.9,2.6,0.9c0.9,0,1.9-0.2,2.6-0.9c1.4-1.4,1.4-3.5,0-4.9L693.1,123.1z"/>
<path fill="#F25B26" d="M693.1,365.8l25.2-25.2c1.4-1.4,1.4-3.5,0-4.9c-1.4-1.4-3.5-1.4-4.9,0l-25.2,25.2l-25.5-25.2
	c-1.4-1.4-3.5-1.4-4.9,0c-1.4,1.4-1.4,3.5,0,4.9l25.2,25.2L657.8,391c-1.4,1.4-1.4,3.5,0,4.9c0.7,0.7,1.6,0.9,2.6,0.9
	s1.9-0.2,2.6-0.9l25.2-25.2l25.2,25.2c0.7,0.7,1.6,0.9,2.6,0.9c0.9,0,1.9-0.2,2.6-0.9c1.4-1.4,1.4-3.5,0-4.9L693.1,365.8z"/>
<path fill="#5BCF61" d="M913.7,341.5c-1.4-1.4-3.5-1.4-4.9,0l-41.1,41.1L850,364.8c-1.4-1.4-3.5-1.4-4.9,0c-1.4,1.4-1.4,3.5,0,4.9
	l20.3,20.3c0.7,0.7,1.6,0.9,2.6,0.9c0.9,0,1.9-0.2,2.6-0.9l43.7-43.7C915.1,345.2,915.1,342.9,913.7,341.5z"/>
<g id="miu_1_">
	<g id="editor_list_view_hambuger_menu_glyph_1_">
		<g>
			<path id="path-1_3_" fill="#D22856" d="M20.9,233.8c-1.4,0-2.6,0.9-2.6,2.3v4.7c0,1.4,1.2,2.3,2.6,2.3h111.4
				c1.4,0,2.6-0.9,2.6-2.3v-4.7c0-1.4-1.2-2.3-2.6-2.3H20.9z M20.9,257.1c-1.4,0-2.6,0.9-2.6,2.3v4.7c0,1.4,1.2,2.3,2.6,2.3h111.4
				c1.4,0,2.6-0.9,2.6-2.3v-4.7c0-1.4-1.2-2.3-2.6-2.3H20.9z M20.9,280.5c-1.4,0-2.6,0.9-2.6,2.3v4.7c0,1.4,1.2,2.3,2.6,2.3h111.4
				c1.4,0,2.6-0.9,2.6-2.3v-4.7c0-1.4-1.2-2.3-2.6-2.3H20.9z"/>
		</g>
		<g>
			<path id="path-1_2_" fill="#D22856" d="M20.9,233.8c-1.4,0-2.6,0.9-2.6,2.3v4.7c0,1.4,1.2,2.3,2.6,2.3h111.4
				c1.4,0,2.6-0.9,2.6-2.3v-4.7c0-1.4-1.2-2.3-2.6-2.3H20.9z M20.9,257.1c-1.4,0-2.6,0.9-2.6,2.3v4.7c0,1.4,1.2,2.3,2.6,2.3h111.4
				c1.4,0,2.6-0.9,2.6-2.3v-4.7c0-1.4-1.2-2.3-2.6-2.3H20.9z M20.9,280.5c-1.4,0-2.6,0.9-2.6,2.3v4.7c0,1.4,1.2,2.3,2.6,2.3h111.4
				c1.4,0,2.6-0.9,2.6-2.3v-4.7c0-1.4-1.2-2.3-2.6-2.3H20.9z"/>
		</g>
	</g>
</g>
<path fill="#FFFFFF" d="M879.4,32.8l20.1-20.1c0.7-0.7,0.7-1.9,0-2.6l-4.9-4.9c-0.2-0.2-0.7-0.5-1.2-0.5s-0.9,0.2-1.2,0.5
	l-20.1,20.1L852,5.2c-0.7-0.7-1.9-0.7-2.6,0l-4.9,4.9c-0.7,0.7-0.7,1.9,0,2.6l20.1,20.1l-20.1,20.1c-0.7,0.7-0.7,1.9,0,2.6l4.9,4.9
	c0.2,0.2,0.7,0.5,1.2,0.5s0.9-0.2,1.2-0.5l20.1-20.1L892,60.3c0.2,0.2,0.7,0.5,1.2,0.5s0.9-0.2,1.2-0.5l4.9-4.9
	c0.7-0.7,0.7-1.9,0-2.6L879.4,32.8z"/>
</svg>
