<svg display="none" width="0" height="0" version="1.1" xmlns="http://www.w3.org/2000/svg" xmlns:xlink="http://www.w3.org/1999/xlink">
<defs>
<symbol id="icon-htmlacademy" viewBox="0 0 809 1024">
	<title>htmlacademy</title>
	<path class="path1" d="M409.119 0.511l-4.446-0.511-404.674 42.414v740.77l404.674 240.816 404.674-240.786v-740.8l-400.228-41.903zM751.524 364.272l-346.159-204.049-0.030-3.124-2.613 1.502-2.643-1.682v3.274l-342.255 203.809v-269.472l346.85-36.406 346.85 36.406v269.742zM402.661 203.869l345.979 201.646-134.541 79.301-213.060-126.791-0.39 42.504 177.345 105.524-25.833 15.229-151.122-89.874-0.39 42.504 114.956 68.337-23.49 15.71-91.076-53.678-0.39 42.444 55.631 32.772-54.069 32.471-341.113-202.787 341.564-205.311zM57.823 454.387l342.765 203.989 0.451 31.36-238.533-142.020-0.451 42.534 239.674 144.063 0.511 32.321-239.464-142.411-0.39 42.504 242.288 145.595 244.601-146.346v-38.088l-0.33-4.446v-112.973l102.58-61.158v300.982l-346.85 206.422-346.85-206.392v-295.936z"></path>
</symbol>
<symbol id="icon-review-arrow-right" viewBox="0 0 533 1024">
	<title>review-arrow-right</title>
	<path class="path1" d="M482.583 511.988l-476.495-476.495c-8.124-8.124-8.124-21.281 0-29.405 8.1-8.124 21.281-8.124 29.381 0l491.223 491.198c8.1 8.1 8.1 21.281 0 29.381l-491.223 491.247c-4.025 4.050-9.376 6.087-14.703 6.087s-10.653-2.037-14.703-6.087c-8.124-8.124-8.124-21.281 0-29.405l476.52-476.52z"></path>
</symbol>
<symbol id="icon-review-arrow-left" viewBox="0 0 533 1024">
	<title>review-arrow-left</title>
	<path class="path1" d="M50.195 511.988l476.495-476.495c8.124-8.124 8.124-21.281 0-29.405-8.1-8.124-21.281-8.124-29.381 0l-491.223 491.223c-8.124 8.1-8.124 21.281 0 29.381l491.223 491.223c4.025 4.050 9.376 6.087 14.703 6.087s10.653-2.037 14.703-6.087c8.124-8.124 8.124-21.281 0-29.405l-476.52-476.52z"></path>
</symbol>
<symbol id="icon-map-marker" viewBox="0 0 1024 1024">
	<title>map-marker</title>
	<path class="path1" d="M1023.972 511.986c0 282.762-229.224 511.986-511.986 511.986s-511.986-229.224-511.986-511.986c0-282.762 229.224-511.986 511.986-511.986s511.986 229.224 511.986 511.986z"></path>
	<path class="path2" d="M735.835 511.986c0 123.629-100.221 223.85-223.85 223.85s-223.85-100.221-223.85-223.85c0-123.629 100.221-223.85 223.85-223.85s223.85 100.221 223.85 223.85z"></path>
</symbol>
<symbol id="icon-menu-cross" viewBox="0 0 1024 1024">
	<title>menu-cross</title>
	<path class="path1" d="M647.326 512l367.277-367.234c12.572-12.572 12.572-32.952 0-45.524l-89.803-89.803c-6.050-6.050-14.202-9.439-22.783-9.439s-16.733 3.39-22.74 9.439l-367.277 367.277-367.277-367.277c-12.1-12.1-33.467-12.1-45.524 0l-89.76 89.803c-12.572 12.572-12.572 32.952 0 45.524l367.277 367.234-367.277 367.234c-12.572 12.572-12.572 32.952 0 45.524l89.803 89.846c6.050 6.050 14.202 9.439 22.74 9.439s16.733-3.39 22.74-9.439l367.32-367.277 367.277 367.277c6.050 6.050 14.202 9.439 22.74 9.439s16.733-3.39 22.74-9.439l89.803-89.846c12.572-12.572 12.572-32.952 0-45.524l-367.277-367.234z"></path>
</symbol>
<symbol id="icon-menu-burger" viewBox="0 0 2130 1024">
	<title>menu-burger</title>
	<path class="path1" d="M48.498 0c-26.744 0-48.498 18.256-48.498 43.081v84.498c0 23.801 21.071 43.081 48.541 43.081h2033.37c26.787 0 48.541-18.256 48.541-43.081v-84.498c0-23.801-21.071-43.081-48.541-43.081h-2033.412zM48.498 426.67c-26.744 0-48.498 18.256-48.498 43.081v84.455c0 23.758 21.071 43.081 48.541 43.081h2033.37c26.787 0 48.541-18.256 48.541-43.081v-84.455c0-23.801-21.071-43.081-48.541-43.081h-2033.412zM48.498 853.298c-26.744 0-48.498 18.299-48.498 43.123v84.498c0 23.758 21.071 43.081 48.541 43.081h2033.37c26.787 0 48.541-18.256 48.541-43.081v-84.498c0-23.801-21.071-43.123-48.541-43.123h-2033.412z"></path>
</symbol>
<symbol id="icon-quotes" viewBox="0 0 1263 1024">
	<title>quotes</title>
	<path class="path1" d="M1161.511 636.219c-44.901-38.544-106.529-57.856-184.9-57.856h-91.022c7.593-65.513 20.516-118.745 38.865-159.697 18.317-40.952 45.816-80.972 82.497-120.030 37.934-40.293 75.209-72.737 111.891-97.33 36.649-24.561 84.664-53.874 144.125-87.923l-68.29-113.384c-39.186 23.999-87.875 54.902-146.020 92.771-58.161 37.869-113.143 83.926-164.962 138.17-50.584 53.008-93.59 113.271-128.955 180.775-35.413 67.488-53.104 142.247-53.104 224.263 0 116.097 23.373 209.815 70.168 281.107 46.763 71.276 124.492 106.93 233.237 106.93 69.51 0 124.203-23.052 164.031-69.205s59.734-95.789 59.734-148.861c0-74.583-22.458-131.171-67.295-169.73z"></path>
	<path class="path2" d="M305.315 298.637c37.918-40.293 75.209-72.737 111.891-97.33 36.649-24.561 84.664-53.874 144.125-87.923l-68.29-113.384c-39.186 23.999-87.891 54.902-146.004 92.771-58.177 37.869-113.175 83.926-164.995 138.17-50.551 53.008-93.558 113.271-128.939 180.775-35.397 67.488-53.104 142.247-53.104 224.247 0 116.097 23.389 209.815 70.168 281.107 46.747 71.276 124.508 106.93 233.237 106.93 69.51 0 124.203-23.052 164.031-69.205s59.75-95.789 59.75-148.861c0-74.583-22.458-131.154-67.327-169.714-44.885-38.544-106.513-57.856-184.884-57.856h-91.038c7.593-65.513 20.869-119.050 39.828-160.644 18.959-41.562 46.121-81.277 81.55-119.082z"></path>
</symbol>
<symbol id="icon-no" viewBox="0 0 1024 1024">
	<title>no</title>
	<path class="path1" d="M593.187 512l413.971-413.933c22.431-22.392 22.431-58.756 0-81.187s-58.756-22.431-81.187 0l-413.971 413.933-413.933-414.010c-22.431-22.431-58.756-22.431-81.187 0-22.431 22.392-22.431 58.756 0 81.187l413.933 413.971-414.010 413.971c-22.431 22.431-22.431 58.756 0 81.187 11.215 11.215 25.914 16.804 40.612 16.804s29.397-5.589 40.612-16.804l413.971-413.933 413.933 413.971c11.215 11.215 25.914 16.804 40.612 16.804s29.397-5.589 40.612-16.804c22.431-22.431 22.431-58.756 0-81.187l-413.971-413.971z"></path>
</symbol>
<symbol id="icon-yes" viewBox="0 0 1434 1024">
	<title>yes</title>
	<path class="path1" d="M1413.43 20.727c-27.668-27.668-72.475-27.668-100.143 0l-832.26 832.26-360.109-360.109c-27.668-27.668-72.475-27.668-100.143 0s-27.668 72.475 0 100.143l410.204 410.204c13.834 13.834 31.965 20.727 50.095 20.727s36.261-6.893 50.095-20.727l882.26-882.308c27.621-27.668 27.621-72.522 0-100.19z"></path>
</symbol>
<symbol id="icon-youtube" viewBox="0 0 1074 1024">
	<title>youtube</title>
	<path class="path1" d="M130.201 1010.797c-71.592 34.989-130.201-1.614-130.201-81.348v-834.824c0-79.807 58.609-116.264 130.201-81.348l889.985 435.127c71.519 35.062 71.519 92.277 0 127.34l-889.985 435.053z"></path>
</symbol>
<symbol id="icon-twitter" viewBox="0 0 1222 1024">
	<title>twitter</title>
	<path class="path1" d="M787.956 10.685c121.235-33.87 214.675 18.367 257.344 80.381 48.466-15.783 95.814-32.823 144.699-48.256-0.279 58.732-37.572 103.217-61.665 120.606 49.164 11.593 93.789-33.521 93.789-33.521-12.221 68.16-72.28 121.933-112.505 138.065-16.691 460.357-228.502 765.119-725.034 755.831-37.572 0 5.377 0-32.124 0-29.471 0-299.595-31.426-352.46-128.707 163.485 13.408 280.111-28.772 337.655-80.311-69.067-20.462-192.816-32.404-214.395-201.196 25.281 7.333 40.714 15.573 85.758 8.171-86.317-58.383-182.131-107.337-176.824-257.344 20.532 22.347 76.819 36.524 96.443 32.194-50.631-16.411-141.766-229.131-64.319-337.725 130.802 126.472 268.728 245.891 514.619 257.344 15.084-156.432 81.778-261.255 209.018-305.531z"></path>
</symbol>
<symbol id="icon-facebook" viewBox="0 0 469 1024">
	<title>facebook</title>
	<path class="path1" d="M339.189 181.459c43.189 0 86.432 0 129.622 0 0-60.486 0-120.973 0-181.459-51.838 0-103.784 0-155.568 0-169.676 9.784-230 129.027-207.946 330.541h-105.297v190.108h105.838c0 167.784 0 335.568 0 503.351 69.135 0 138.27 0 207.405 0 0-167.784 0-335.568 0-503.351h154.432v-190.108h-154.919c-1.135-56.486-1.946-130.054 26.432-149.081z"></path>
</symbol>
<symbol id="icon-blog-post-icon" viewBox="0 0 1103 1024">
	<title>blog-post-icon</title>
	<path class="path1" d="M1063.385 0h-1024c-21.74 0-39.385 17.644-39.385 39.385s17.644 39.385 39.385 39.385h984.615v630.154h-512c-1.615 0-2.993 0.709-4.569 0.906-2.639 0.315-5.12 0.709-7.68 1.536-2.678 0.827-5.002 2.087-7.365 3.466-1.3 0.788-2.796 0.985-4.017 1.969l-252.062 189.046v-157.538c0-21.78-17.644-39.385-39.385-39.385h-118.154v-512c0-21.74-17.644-39.385-39.385-39.385s-39.385 17.644-39.385 39.385v551.385c0 21.78 17.644 39.385 39.385 39.385h118.154v196.923c0 14.927 8.428 28.554 21.78 35.249 5.553 2.757 11.618 4.135 17.605 4.135 8.35 0 16.66-2.599 23.631-7.877l304.561-228.431h538.27c21.78 0 39.385-17.605 39.385-39.385v-708.923c0-21.74-17.605-39.385-39.385-39.385z"></path>
</symbol>
</defs>
</svg>
